<svg width="1920" height="2580" viewBox="0 0 1920 2580" fill="none" xmlns="http://www.w3.org/2000/svg">
<mask id="mask0_517_21508" style="mask-type:luminance" maskUnits="userSpaceOnUse" x="0" y="0" width="1920" height="2580">
<path d="M1920 0H0V2579.08H1920V0Z" fill="white"/>
</mask>
<g mask="url(#mask0_517_21508)">
<path d="M1920 -0.00012207H0V4689.11H1920V-0.00012207Z" fill="#011B48"/>
<path d="M941.44 -600.34C918.26 -526.19 878.53 -463.07 841.29 -398.74C741.03 -225.6 628.06 -63.8701 505.57 89.9999C418.53 199.34 328.91 305.6 236.33 408.92C227.27 419.03 217.42 428.27 201.47 444.5C188.34 360.34 177.06 285.34 164.58 210.46C162.17 195.98 167.08 175.43 151.13 168.33C136.1 161.65 127.5 179.23 117.86 188.35C-105.77 399.85 -337.86 599.18 -594.05 763.63C-651.7 800.64 -711.45 834 -772.52 865.86C-416.98 535.5 -83.05 181.32 216.89 -217.11C235.82 -176.43 231.27 -139.11 236.23 -103.18C243.27 -52.1701 246.63 -0.940125 252.3 50.1699C253.6 61.8699 249.05 77.4199 261.17 84.4599C273.72 91.7499 280.49 76.9599 288.34 70.4399C401.31 -23.3101 507.63 -125.64 610.48 -232.3C715.27 -340.96 815.7 -454.44 911.78 -572.67C920.5 -583.4 927.11 -597.3 942.03 -600.05L941.44 -600.35V-600.34Z" fill="#000A35"/>
<path d="M849.26 -145.35C826.08 -71.2001 786.35 -8.08009 749.11 56.2499C648.85 229.4 535.88 391.13 413.39 544.99C326.35 654.33 236.73 760.59 144.15 863.91C135.09 874.02 125.24 883.26 109.29 899.49C96.1598 815.33 84.8798 740.33 72.3998 665.45C69.9899 650.97 74.8998 630.42 58.9498 623.32C43.9198 616.64 35.3198 634.22 25.6798 643.34C-197.95 854.84 -430.04 1054.17 -686.23 1218.62C-743.88 1255.63 -803.63 1288.99 -864.7 1320.85C-509.16 990.49 -175.24 636.31 124.7 237.88C143.63 278.56 139.08 315.88 144.04 351.81C151.08 402.82 154.44 454.05 160.11 505.16C161.41 516.86 156.86 532.41 168.98 539.45C181.53 546.74 188.3 531.95 196.15 525.43C309.13 431.67 415.45 329.35 518.3 222.69C623.1 114.03 723.52 0.559906 819.6 -117.67C828.32 -128.4 834.93 -142.3 849.85 -145.05L849.26 -145.35Z" fill="#000A35"/>
<path d="M757.08 309.64C733.9 383.79 694.17 446.91 656.93 511.24C556.67 684.39 443.7 846.12 321.21 999.98C234.17 1109.32 144.55 1215.58 51.9698 1318.9C42.9099 1329.01 33.0599 1338.25 17.1099 1354.48C3.97986 1270.32 -7.30017 1195.32 -19.7802 1120.44C-22.1901 1105.96 -17.2801 1085.41 -33.2301 1078.31C-48.2601 1071.63 -56.8601 1089.21 -66.5001 1098.33C-290.13 1309.83 -522.22 1509.16 -778.41 1673.61C-836.06 1710.62 -895.81 1743.98 -956.88 1775.84C-601.34 1445.48 -267.42 1091.3 32.5199 692.87C51.4499 733.55 46.8998 770.87 51.8599 806.8C58.8998 857.81 62.2599 909.04 67.9299 960.15C69.23 971.85 64.6799 987.4 76.7999 994.44C89.35 1001.73 96.1199 986.94 103.97 980.42C216.95 886.66 323.27 784.34 426.12 677.68C530.91 569.02 631.34 455.54 727.42 337.31C736.14 326.58 742.75 312.68 757.67 309.93L757.08 309.63V309.64Z" fill="#000A35"/>
<path d="M664.9 764.63C641.72 838.78 601.99 901.9 564.75 966.23C464.49 1139.38 351.52 1301.11 229.03 1454.97C141.99 1564.31 52.37 1670.57 -40.21 1773.89C-49.27 1784 -59.12 1793.24 -75.07 1809.47C-88.2 1725.31 -99.48 1650.31 -111.96 1575.43C-114.37 1560.95 -109.46 1540.4 -125.41 1533.3C-140.44 1526.62 -149.04 1544.2 -158.68 1553.32C-382.31 1764.82 -614.4 1964.15 -870.59 2128.6C-928.24 2165.61 -987.99 2198.97 -1049.06 2230.83C-693.52 1900.47 -359.6 1546.29 -59.66 1147.86C-40.73 1188.54 -45.28 1225.86 -40.32 1261.79C-33.28 1312.8 -29.92 1364.03 -24.25 1415.14C-22.95 1426.84 -27.5 1442.39 -15.38 1449.43C-2.82996 1456.72 3.94006 1441.93 11.79 1435.41C124.77 1341.65 231.09 1239.33 333.94 1132.67C438.73 1024.01 539.16 910.53 635.24 792.3C643.96 781.57 650.57 767.67 665.49 764.92L664.9 764.62V764.63Z" fill="#000A35"/>
<path d="M572.72 1219.62C549.54 1293.77 509.81 1356.89 472.57 1421.22C372.31 1594.37 259.34 1756.1 136.85 1909.96C49.8097 2019.3 -39.8103 2125.56 -132.39 2228.88C-141.45 2238.99 -151.3 2248.23 -167.25 2264.46C-180.38 2180.3 -191.66 2105.3 -204.14 2030.42C-206.55 2015.94 -201.64 1995.39 -217.59 1988.29C-232.62 1981.61 -241.22 1999.19 -250.86 2008.31C-474.49 2219.81 -706.58 2419.14 -962.77 2583.59C-1020.42 2620.6 -1080.17 2653.96 -1141.24 2685.82C-785.69 2355.46 -451.77 2001.28 -151.83 1602.85C-132.9 1643.53 -137.45 1680.85 -132.49 1716.78C-125.45 1767.79 -122.09 1819.02 -116.42 1870.13C-115.12 1881.83 -119.67 1897.38 -107.55 1904.42C-95.0002 1911.71 -88.2302 1896.92 -80.3802 1890.4C32.5997 1796.64 138.92 1694.32 241.77 1587.66C346.56 1479 446.99 1365.52 543.07 1247.29C551.79 1236.56 558.4 1222.66 573.32 1219.91L572.73 1219.61L572.72 1219.62Z" fill="#000A35"/>
<path d="M480.54 1674.61C457.36 1748.76 417.63 1811.88 380.39 1876.21C280.13 2049.36 167.16 2211.09 44.6699 2364.95C-42.3701 2474.29 -131.99 2580.55 -224.57 2683.87C-233.63 2693.98 -243.48 2703.22 -259.43 2719.45C-272.56 2635.29 -283.84 2560.29 -296.32 2485.41C-298.73 2470.93 -293.82 2450.38 -309.77 2443.28C-324.8 2436.6 -333.4 2454.18 -343.04 2463.3C-566.67 2674.8 -798.76 2874.13 -1054.95 3038.58C-1112.6 3075.59 -1172.35 3108.95 -1233.42 3140.81C-877.87 2810.45 -543.95 2456.27 -244.01 2057.84C-225.08 2098.52 -229.63 2135.84 -224.67 2171.77C-217.63 2222.78 -214.27 2274.01 -208.6 2325.12C-207.3 2336.82 -211.85 2352.37 -199.73 2359.41C-187.18 2366.7 -180.41 2351.91 -172.56 2345.39C-59.5801 2251.63 46.7399 2149.31 149.59 2042.65C254.38 1933.99 354.81 1820.51 450.89 1702.28C459.61 1691.55 466.22 1677.65 481.14 1674.9L480.55 1674.6L480.54 1674.61Z" fill="#000A35"/>
<path d="M388.36 2129.61C365.18 2203.76 325.45 2266.88 288.21 2331.21C187.95 2504.36 74.9799 2666.09 -47.5101 2819.95C-134.55 2929.29 -224.17 3035.55 -316.75 3138.87C-325.81 3148.98 -335.66 3158.22 -351.61 3174.45C-364.74 3090.29 -376.02 3015.29 -388.5 2940.41C-390.91 2925.93 -386 2905.38 -401.95 2898.28C-416.98 2891.6 -425.58 2909.18 -435.22 2918.3C-658.85 3129.8 -890.94 3329.13 -1147.13 3493.58C-1204.78 3530.59 -1264.53 3563.95 -1325.6 3595.81C-970.05 3265.45 -636.13 2911.27 -336.19 2512.84C-317.26 2553.52 -321.81 2590.84 -316.85 2626.77C-309.81 2677.78 -306.45 2729.01 -300.78 2780.12C-299.48 2791.82 -304.03 2807.37 -291.91 2814.41C-279.36 2821.7 -272.59 2806.91 -264.74 2800.39C-151.76 2706.63 -45.4401 2604.31 57.4099 2497.65C162.2 2388.99 262.63 2275.51 358.71 2157.28C367.43 2146.55 374.04 2132.65 388.96 2129.9L388.37 2129.6L388.36 2129.61Z" fill="#000A35"/>
<path d="M-60.2301 3595.65C-37.0501 3521.5 2.67992 3458.38 39.9199 3394.05C140.18 3220.9 253.15 3059.17 375.64 2905.31C462.68 2795.97 552.3 2689.71 644.88 2586.39C653.94 2576.28 663.79 2567.04 679.74 2550.81C692.87 2634.97 704.15 2709.97 716.63 2784.85C719.04 2799.33 714.13 2819.88 730.08 2826.98C745.11 2833.66 753.71 2816.08 763.35 2806.96C986.98 2595.46 1219.07 2396.13 1475.26 2231.68C1532.91 2194.67 1592.66 2161.31 1653.73 2129.45C1298.18 2459.81 964.26 2813.99 664.32 3212.42C645.39 3171.74 649.94 3134.42 644.98 3098.49C637.94 3047.48 634.58 2996.25 628.91 2945.14C627.61 2933.44 632.16 2917.89 620.04 2910.85C607.49 2903.56 600.72 2918.35 592.87 2924.87C479.89 3018.63 373.57 3120.95 270.72 3227.61C165.93 3336.27 65.4999 3449.75 -30.5801 3567.98C-39.3001 3578.71 -45.9101 3592.61 -60.8301 3595.36L-60.2401 3595.66L-60.2301 3595.65Z" fill="#000A35"/>
<path d="M31.9499 3140.66C55.1299 3066.51 94.8599 3003.39 132.1 2939.06C232.36 2765.91 345.33 2604.18 467.82 2450.32C554.86 2340.98 644.48 2234.72 737.06 2131.4C746.12 2121.29 755.97 2112.05 771.92 2095.82C785.05 2179.98 796.33 2254.98 808.81 2329.86C811.22 2344.34 806.31 2364.89 822.26 2371.99C837.29 2378.67 845.89 2361.09 855.53 2351.97C1079.16 2140.47 1311.25 1941.14 1567.44 1776.69C1625.09 1739.68 1684.84 1706.32 1745.91 1674.46C1390.36 2004.82 1056.44 2359 756.5 2757.43C737.57 2716.75 742.12 2679.43 737.16 2643.5C730.12 2592.49 726.76 2541.26 721.09 2490.15C719.79 2478.45 724.34 2462.9 712.22 2455.86C699.67 2448.57 692.9 2463.36 685.05 2469.88C572.07 2563.64 465.75 2665.96 362.9 2772.62C258.11 2881.28 157.68 2994.76 61.5999 3112.99C52.8799 3123.72 46.2699 3137.62 31.3499 3140.37L31.9399 3140.67L31.9499 3140.66Z" fill="#000A35"/>
<path d="M124.13 2685.67C147.31 2611.52 187.04 2548.4 224.28 2484.07C324.54 2310.92 437.51 2149.19 560 1995.33C647.04 1885.99 736.66 1779.73 829.24 1676.41C838.3 1666.3 848.15 1657.06 864.1 1640.83C877.23 1724.99 888.51 1799.99 900.99 1874.87C903.4 1889.35 898.49 1909.9 914.44 1917C929.47 1923.68 938.07 1906.1 947.71 1896.98C1171.34 1685.48 1403.43 1486.15 1659.62 1321.7C1717.27 1284.69 1777.02 1251.33 1838.09 1219.47C1482.54 1549.83 1148.62 1904.01 848.68 2302.44C829.75 2261.76 834.3 2224.44 829.34 2188.51C822.3 2137.5 818.94 2086.27 813.27 2035.16C811.97 2023.46 816.52 2007.91 804.4 2000.87C791.85 1993.58 785.08 2008.37 777.23 2014.89C664.25 2108.65 557.93 2210.97 455.08 2317.63C350.29 2426.29 249.86 2539.77 153.78 2658C145.06 2668.73 138.45 2682.63 123.53 2685.38L124.12 2685.68L124.13 2685.67Z" fill="#000A35"/>
<path d="M216.31 2230.67C239.49 2156.52 279.22 2093.4 316.46 2029.07C416.72 1855.92 529.69 1694.19 652.18 1540.33C739.22 1430.99 828.84 1324.73 921.42 1221.41C930.48 1211.3 940.33 1202.06 956.28 1185.83C969.41 1269.99 980.69 1344.99 993.17 1419.87C995.58 1434.35 990.67 1454.9 1006.62 1462C1021.65 1468.68 1030.25 1451.1 1039.89 1441.98C1263.52 1230.48 1495.61 1031.15 1751.8 866.7C1809.45 829.69 1869.2 796.33 1930.27 764.47C1574.72 1094.83 1240.8 1449.01 940.86 1847.44C921.93 1806.76 926.48 1769.44 921.52 1733.51C914.48 1682.5 911.12 1631.27 905.45 1580.16C904.15 1568.46 908.7 1552.91 896.58 1545.87C884.03 1538.58 877.26 1553.37 869.41 1559.89C756.43 1653.65 650.11 1755.97 547.26 1862.63C442.47 1971.29 342.04 2084.77 245.96 2203C237.24 2213.73 230.63 2227.63 215.71 2230.38L216.3 2230.68L216.31 2230.67Z" fill="#000A35"/>
<path d="M308.49 1775.68C331.67 1701.53 371.4 1638.41 408.64 1574.08C508.9 1400.93 621.87 1239.2 744.36 1085.34C831.4 976 921.02 869.74 1013.6 766.42C1022.66 756.31 1032.51 747.07 1048.46 730.84C1061.59 815 1072.87 890 1085.35 964.88C1087.76 979.36 1082.85 999.91 1098.8 1007.01C1113.83 1013.69 1122.43 996.11 1132.07 986.99C1355.7 775.49 1587.79 576.16 1843.98 411.71C1901.63 374.7 1961.38 341.34 2022.45 309.48C1666.9 639.84 1332.98 994.02 1033.04 1392.45C1014.11 1351.77 1018.66 1314.45 1013.7 1278.52C1006.66 1227.51 1003.3 1176.28 997.63 1125.17C996.33 1113.47 1000.88 1097.92 988.76 1090.88C976.21 1083.59 969.44 1098.38 961.59 1104.9C848.61 1198.66 742.29 1300.98 639.44 1407.64C534.65 1516.3 434.22 1629.78 338.14 1748.01C329.42 1758.74 322.81 1772.64 307.89 1775.39L308.48 1775.69L308.49 1775.68Z" fill="#000A35"/>
<path d="M400.68 1320.69C423.86 1246.54 463.59 1183.42 500.83 1119.09C601.09 945.94 714.06 784.21 836.55 630.35C923.59 521.01 1013.21 414.75 1105.79 311.43C1114.85 301.32 1124.7 292.08 1140.65 275.85C1153.78 360.01 1165.06 435.01 1177.54 509.89C1179.95 524.37 1175.04 544.92 1190.99 552.02C1206.02 558.7 1214.62 541.12 1224.26 532C1447.89 320.5 1679.98 121.17 1936.17 -43.2801C1993.82 -80.2901 2053.57 -113.65 2114.64 -145.51C1759.09 184.85 1425.17 539.03 1125.23 937.46C1106.3 896.78 1110.85 859.46 1105.89 823.53C1098.85 772.52 1095.49 721.29 1089.82 670.18C1088.52 658.48 1093.07 642.93 1080.95 635.89C1068.4 628.6 1061.63 643.39 1053.78 649.91C940.8 743.67 834.48 845.99 731.63 952.65C626.84 1061.31 526.41 1174.79 430.33 1293.02C421.61 1303.75 415 1317.65 400.08 1320.4L400.67 1320.7L400.68 1320.69Z" fill="#000A35"/>
<path d="M492.86 865.7C516.04 791.55 555.77 728.43 593.01 664.1C693.27 490.95 806.24 329.22 928.73 175.36C1015.77 66.0199 1105.39 -40.2401 1197.97 -143.56C1207.03 -153.67 1216.88 -162.91 1232.83 -179.14C1245.96 -94.9801 1257.24 -19.9801 1269.72 54.8999C1272.13 69.3799 1267.22 89.9299 1283.17 97.0299C1298.2 103.71 1306.8 86.1299 1316.44 77.0099C1540.07 -134.49 1772.16 -333.82 2028.35 -498.27C2086 -535.28 2145.75 -568.64 2206.82 -600.5C1851.28 -270.14 1517.35 84.0399 1217.41 482.47C1198.48 441.79 1203.03 404.47 1198.07 368.54C1191.03 317.53 1187.67 266.3 1182 215.19C1180.7 203.49 1185.25 187.94 1173.13 180.9C1160.58 173.61 1153.81 188.4 1145.96 194.92C1032.98 288.68 926.66 391 823.81 497.66C719.02 606.32 618.59 719.8 522.51 838.03C513.79 848.76 507.18 862.66 492.26 865.41L492.85 865.71L492.86 865.7Z" fill="#000A35"/>
<path d="M3149.2 -851.59C3126.02 -777.44 3086.29 -714.32 3049.05 -649.99C2948.79 -476.84 2835.82 -315.11 2713.33 -161.25C2626.29 -51.9102 2536.67 54.3499 2444.09 157.67C2435.03 167.78 2425.18 177.02 2409.23 193.25C2396.1 109.09 2384.82 34.0899 2372.34 -40.7901C2369.93 -55.2701 2374.84 -75.8201 2358.89 -82.9201C2343.86 -89.6001 2335.26 -72.0201 2325.62 -62.9001C2101.99 148.6 1869.9 347.93 1613.71 512.38C1556.06 549.39 1496.31 582.75 1435.24 614.61C1790.79 284.25 2124.71 -69.9301 2424.65 -468.36C2443.58 -427.68 2439.03 -390.36 2443.99 -354.43C2451.03 -303.42 2454.39 -252.19 2460.06 -201.08C2461.36 -189.38 2456.81 -173.83 2468.93 -166.79C2481.48 -159.5 2488.25 -174.29 2496.1 -180.81C2609.08 -274.57 2715.4 -376.89 2818.25 -483.55C2923.04 -592.21 3023.47 -705.69 3119.55 -823.92C3128.27 -834.65 3134.88 -848.55 3149.8 -851.3L3149.21 -851.6L3149.2 -851.59Z" fill="#000A35"/>
<path d="M3057.02 -396.6C3033.84 -322.45 2994.11 -259.33 2956.87 -195C2856.61 -21.8501 2743.64 139.88 2621.15 293.74C2534.11 403.08 2444.49 509.34 2351.91 612.66C2342.85 622.77 2333 632.01 2317.05 648.24C2303.92 564.08 2292.64 489.08 2280.16 414.2C2277.75 399.72 2282.66 379.17 2266.71 372.07C2251.68 365.39 2243.08 382.97 2233.44 392.09C2009.81 603.59 1777.72 802.92 1521.53 967.37C1463.88 1004.38 1404.13 1037.74 1343.06 1069.6C1698.6 739.24 2032.52 385.06 2332.46 -13.3701C2351.39 27.3099 2346.84 64.6299 2351.8 100.56C2358.84 151.57 2362.2 202.8 2367.87 253.91C2369.17 265.61 2364.62 281.16 2376.74 288.2C2389.29 295.49 2396.06 280.7 2403.91 274.18C2516.89 180.42 2623.21 78.0999 2726.06 -28.5601C2830.85 -137.22 2931.28 -250.7 3027.36 -368.93C3036.08 -379.66 3042.69 -393.56 3057.61 -396.31L3057.02 -396.61V-396.6Z" fill="#000A35"/>
<path d="M2964.84 58.3899C2941.66 132.54 2901.93 195.66 2864.69 259.99C2764.43 433.14 2651.46 594.87 2528.97 748.73C2441.93 858.07 2352.31 964.33 2259.73 1067.65C2250.67 1077.76 2240.82 1087 2224.87 1103.23C2211.74 1019.07 2200.46 944.07 2187.98 869.19C2185.57 854.71 2190.48 834.16 2174.53 827.06C2159.5 820.38 2150.9 837.96 2141.26 847.08C1917.63 1058.58 1685.54 1257.91 1429.35 1422.36C1371.7 1459.37 1311.95 1492.73 1250.88 1524.59C1606.43 1194.23 1940.35 840.05 2240.29 441.62C2259.22 482.3 2254.67 519.62 2259.63 555.55C2266.67 606.56 2270.03 657.79 2275.7 708.9C2277 720.6 2272.45 736.15 2284.57 743.19C2297.12 750.48 2303.89 735.69 2311.74 729.17C2424.72 635.41 2531.04 533.09 2633.89 426.43C2738.68 317.77 2839.11 204.29 2935.19 86.0599C2943.91 75.3299 2950.52 61.4299 2965.44 58.6799L2964.85 58.3799L2964.84 58.3899Z" fill="#000A35"/>
<path d="M2872.66 513.38C2849.48 587.53 2809.75 650.65 2772.51 714.98C2672.25 888.13 2559.28 1049.86 2436.79 1203.72C2349.75 1313.06 2260.13 1419.32 2167.55 1522.64C2158.49 1532.75 2148.64 1541.99 2132.69 1558.22C2119.56 1474.06 2108.28 1399.06 2095.8 1324.18C2093.39 1309.7 2098.3 1289.15 2082.35 1282.05C2067.32 1275.37 2058.72 1292.95 2049.08 1302.07C1825.45 1513.57 1593.36 1712.9 1337.17 1877.35C1279.52 1914.36 1219.77 1947.72 1158.7 1979.58C1514.25 1649.22 1848.17 1295.04 2148.11 896.61C2167.04 937.29 2162.49 974.61 2167.45 1010.54C2174.49 1061.55 2177.85 1112.78 2183.52 1163.89C2184.82 1175.59 2180.27 1191.14 2192.39 1198.18C2204.94 1205.47 2211.71 1190.68 2219.56 1184.16C2332.54 1090.4 2438.86 988.08 2541.71 881.42C2646.5 772.76 2746.93 659.28 2843.01 541.05C2851.73 530.32 2858.34 516.42 2873.26 513.67L2872.67 513.37L2872.66 513.38Z" fill="#000A35"/>
<path d="M2780.48 968.37C2757.3 1042.52 2717.57 1105.64 2680.33 1169.97C2580.07 1343.12 2467.1 1504.85 2344.61 1658.71C2257.57 1768.05 2167.95 1874.31 2075.37 1977.63C2066.31 1987.74 2056.46 1996.98 2040.51 2013.21C2027.38 1929.05 2016.1 1854.05 2003.62 1779.17C2001.21 1764.69 2006.12 1744.14 1990.17 1737.04C1975.14 1730.36 1966.54 1747.94 1956.9 1757.06C1733.27 1968.56 1501.18 2167.89 1244.99 2332.34C1187.34 2369.35 1127.59 2402.71 1066.52 2434.57C1422.07 2104.21 1755.99 1750.03 2055.93 1351.6C2074.86 1392.28 2070.31 1429.6 2075.27 1465.53C2082.31 1516.54 2085.67 1567.77 2091.34 1618.88C2092.64 1630.58 2088.09 1646.13 2100.21 1653.17C2112.76 1660.46 2119.53 1645.67 2127.38 1639.15C2240.36 1545.39 2346.68 1443.07 2449.53 1336.41C2554.32 1227.75 2654.75 1114.27 2750.83 996.04C2759.55 985.31 2766.16 971.41 2781.08 968.66L2780.49 968.36L2780.48 968.37Z" fill="#000A35"/>
<path d="M2688.3 1423.37C2665.12 1497.52 2625.39 1560.64 2588.15 1624.97C2487.89 1798.12 2374.92 1959.85 2252.43 2113.71C2165.39 2223.05 2075.77 2329.31 1983.19 2432.63C1974.13 2442.74 1964.28 2451.98 1948.33 2468.21C1935.2 2384.05 1923.92 2309.05 1911.44 2234.17C1909.03 2219.69 1913.94 2199.14 1897.99 2192.04C1882.96 2185.36 1874.36 2202.94 1864.72 2212.06C1641.09 2423.56 1409 2622.89 1152.81 2787.34C1095.16 2824.35 1035.41 2857.71 974.34 2889.57C1329.89 2559.21 1663.81 2205.03 1963.75 1806.6C1982.68 1847.28 1978.13 1884.6 1983.09 1920.53C1990.13 1971.54 1993.49 2022.77 1999.16 2073.88C2000.46 2085.58 1995.91 2101.13 2008.03 2108.17C2020.58 2115.46 2027.35 2100.67 2035.2 2094.15C2148.18 2000.39 2254.5 1898.07 2357.35 1791.41C2462.14 1682.75 2562.57 1569.27 2658.65 1451.04C2667.37 1440.31 2673.98 1426.41 2688.9 1423.66L2688.31 1423.36L2688.3 1423.37Z" fill="#000A35"/>
<path d="M2596.11 1878.36C2572.93 1952.51 2533.2 2015.63 2495.96 2079.96C2395.7 2253.11 2282.73 2414.84 2160.24 2568.7C2073.2 2678.04 1983.58 2784.3 1891 2887.62C1881.94 2897.73 1872.09 2906.97 1856.14 2923.2C1843.01 2839.04 1831.73 2764.04 1819.25 2689.16C1816.84 2674.68 1821.75 2654.13 1805.8 2647.03C1790.77 2640.35 1782.17 2657.93 1772.53 2667.05C1548.9 2878.55 1316.81 3077.88 1060.62 3242.33C1002.97 3279.34 943.22 3312.7 882.15 3344.56C1237.7 3014.2 1571.62 2660.02 1871.56 2261.59C1890.49 2302.27 1885.94 2339.59 1890.9 2375.52C1897.94 2426.53 1901.3 2477.76 1906.97 2528.87C1908.27 2540.57 1903.72 2556.12 1915.84 2563.16C1928.39 2570.45 1935.16 2555.66 1943.01 2549.14C2055.99 2455.38 2162.31 2353.06 2265.16 2246.4C2369.95 2137.74 2470.38 2024.26 2566.46 1906.03C2575.18 1895.3 2581.79 1881.4 2596.71 1878.65L2596.12 1878.35L2596.11 1878.36Z" fill="#000A35"/>
</g>
</svg>
