 <svg
width="84"
height="98"
            viewBox="0 0 84 98"
            fill="none"
            xmlns="http://www.w3.org/2000/svg"
          >
            <path
              d="M69.5787 26.085C76.3287 32.105 80.4287 39.525 82.5187 48.165C86.8987 66.285 75.9187 87.555 58.4587 94.495C38.4687 102.445 17.6187 96.355 6.38868 78.505C-0.741324 67.175 -1.90132 54.795 2.89868 42.045C7.68868 29.335 16.9287 21.435 29.6087 17.065C34.0187 15.545 33.8587 14.485 30.5987 10.895C29.1187 9.26497 28.4787 6.07497 28.9087 3.86497C29.1787 2.45497 31.9887 0.844966 33.8587 0.564966C37.8187 -0.0350345 41.9387 -0.155034 45.9387 0.194966C47.8287 0.354966 50.7687 1.74497 51.1387 3.12497C51.7187 5.31497 51.2987 8.51497 49.9587 10.305C46.9887 14.265 46.9787 15.285 51.7087 16.565C52.6487 16.815 53.7487 16.825 54.4987 17.325C57.0687 19.045 58.6887 18.205 60.3487 15.895C64.2787 10.425 70.5887 10.935 73.5387 16.995C74.0087 17.975 73.6087 19.655 73.0787 20.755C72.2087 22.565 70.8887 24.155 69.5987 26.085L69.5787 26.085ZM15.1287 43.065C8.03868 54.975 11.0487 73.225 26.5687 82.655C39.9887 90.815 58.9287 86.085 67.5787 72.155C75.9987 58.565 71.5487 39.545 57.7887 31.255C43.0487 22.375 25.0887 27.505 17.3987 39.545C26.1887 42.915 34.8087 46.275 43.4587 49.525C46.7387 50.755 48.9687 52.705 49.0587 56.405C49.1487 59.975 47.4887 62.505 44.0787 63.585C40.5687 64.695 37.7287 63.725 35.3687 60.675C33.4087 58.135 31.0487 55.835 28.5887 53.755C24.2987 50.125 19.7887 46.735 15.1387 43.065L15.1287 43.065Z"
              fill="white"
            />
          </svg>