<svg width="111" height="84" viewBox="0 0 111 84" fill="none" xmlns="http://www.w3.org/2000/svg">
<path d="M93.4678 7C86.2178 3.68 78.5678 1.33 70.7078 0C69.6278 1.92 68.6578 3.9 67.7878 5.93C59.4178 4.67 50.8978 4.67 42.5278 5.93C41.6578 3.9 40.6878 1.93 39.6078 0C31.7378 1.34 24.0878 3.7 16.8278 7.02C2.41783 28.33 -1.48217 49.12 0.467827 69.61C8.90783 75.84 18.3478 80.58 28.3878 83.63C30.6478 80.59 32.6478 77.36 34.3678 73.99C31.1078 72.77 27.9478 71.27 24.9478 69.49C25.7378 68.92 26.5078 68.33 27.2578 67.75C44.9378 76.06 65.3978 76.06 83.0778 67.75C83.8378 68.37 84.6078 68.96 85.3878 69.49C82.3778 71.26 79.2278 72.77 75.9578 73.99C77.6778 77.36 79.6778 80.59 81.9378 83.62C91.9878 80.59 101.438 75.85 109.878 69.61C112.168 45.85 105.968 25.25 93.4778 7H93.4678ZM36.8378 57.01C31.3978 57.01 26.8978 52.07 26.8978 46C26.8978 39.93 31.2378 34.94 36.8178 34.94C42.3978 34.94 46.8578 39.92 46.7678 46C46.6778 52.08 42.3878 57.01 36.8378 57.01ZM73.4978 57.01C68.0478 57.01 63.5678 52.07 63.5678 46C63.5678 39.93 67.9078 34.94 73.4978 34.94C79.0878 34.94 83.5078 39.92 83.4178 46C83.3278 52.08 79.0478 57.01 73.4978 57.01Z" fill="#00126D"/>
</svg>
