<svg width="44" height="31" viewBox="0 0 44 31" fill="none" xmlns="http://www.w3.org/2000/svg">
<path d="M20.9308 15.1612C21.6228 15.4709 22.3837 15.5942 23.1381 15.5187C23.8924 15.4433 24.6139 15.1718 25.2308 14.7312L42.1508 2.73123C42.5108 2.48123 42.8508 2.21124 43.2208 1.94124C42.9362 1.60545 42.5751 1.34297 42.1679 1.1759C41.7606 1.00884 41.3192 0.942068 40.8808 0.981232H3.02081C2.75326 0.977635 2.48583 0.994353 2.22081 1.03124C1.8103 1.09354 1.42206 1.25807 1.09179 1.50971C0.761525 1.76134 0.499839 2.09199 0.330811 2.47124C0.510811 2.59124 0.630811 2.69123 0.760811 2.77123C6.50081 6.38123 12.2408 9.98457 17.9808 13.5812C18.9173 14.1942 19.9081 14.7197 20.9408 15.1512L20.9308 15.1612Z" fill="#00126D"/>
<path d="M43.8608 27.1913V5.29128C43.8608 5.08128 43.8408 4.86128 43.8308 4.56128C43.5308 4.76128 43.3108 4.90128 43.1008 5.05128C37.6208 8.93128 32.1608 12.8313 26.6608 16.6813C25.9496 17.1879 25.1538 17.5638 24.3108 17.7913C23.265 18.0265 22.182 18.044 21.1291 17.8428C20.0763 17.6415 19.0761 17.2257 18.1908 16.6213C14.8808 14.5913 11.6108 12.5013 8.32079 10.4413C5.60079 8.73128 2.89079 7.03128 0.0607902 5.25128C0.0407902 5.57128 0.0207893 5.76127 0.0207893 5.96127V27.2513C-0.0259052 27.657 0.0205288 28.068 0.156558 28.4531C0.292588 28.8381 0.51463 29.1871 0.805804 29.4735C1.09698 29.7598 1.44962 29.976 1.8369 30.1056C2.22419 30.2352 2.63592 30.2747 3.04079 30.2213H40.8408C41.2516 30.2782 41.67 30.2389 42.063 30.1066C42.4561 29.9743 42.8131 29.7526 43.1058 29.4588C43.3986 29.1651 43.6192 28.8074 43.7502 28.4139C43.8812 28.0204 43.9191 27.6019 43.8608 27.1913Z" fill="#00126D"/>
</svg>
