<svg width="19" height="38" viewBox="0 0 19 38" fill="none" xmlns="http://www.w3.org/2000/svg">
<mask id="mask0_518_23853" style="mask-type:luminance" maskUnits="userSpaceOnUse" x="4" y="3" width="12" height="22">
<path d="M6.98992 24.2601L4.55993 6.65015C4.35993 5.18015 5.49997 3.87011 6.97997 3.86011L12.65 3.83014C14.13 3.83014 15.28 5.1301 15.1 6.6001L12.83 24.2301L6.99993 24.2601H6.98992Z" fill="white"/>
</mask>
<g mask="url(#mask0_518_23853)">
<path d="M17.9999 4.93011L17.98 5.94012L16.53 11.0701L2.78998 10.7101L5.41998 1.38013L17.9999 4.93011Z" fill="#02062A"/>
<path d="M16.45 11.3401L2.70996 10.9801L2.78998 10.7101L16.53 11.0701L16.45 11.3401Z" fill="#02062A"/>
<path d="M16.3799 11.6001L2.63995 11.2401L2.70996 10.9801L16.45 11.3401L16.3799 11.6001Z" fill="#02062B"/>
<path d="M16.3 11.8701L2.55994 11.5101L2.63995 11.2401L16.3799 11.6001L16.3 11.8701Z" fill="#02062D"/>
<path d="M16.23 12.1401L2.48993 11.7802L2.55994 11.5101L16.3 11.8701L16.23 12.1401Z" fill="#02062E"/>
<path d="M16.15 12.4001L2.40997 12.0401L2.48993 11.7802L16.23 12.1401L16.15 12.4001Z" fill="#02062F"/>
<path d="M16.08 12.6701L2.33997 12.3101L2.40997 12.0401L16.15 12.4001L16.08 12.6701Z" fill="#020631"/>
<path d="M15.9999 12.9301L2.25995 12.5701L2.33997 12.3101L16.08 12.6701L15.9999 12.9301Z" fill="#020632"/>
<path d="M15.9299 13.2001L2.18994 12.8401L2.25995 12.5701L15.9999 12.9301L15.9299 13.2001Z" fill="#020633"/>
<path d="M15.85 13.4701L2.10999 13.1101L2.18994 12.8401L15.9299 13.2001L15.85 13.4701Z" fill="#020635"/>
<path d="M15.78 13.7301L2.03998 13.3701L2.10999 13.1101L15.85 13.4701L15.78 13.7301Z" fill="#020636"/>
<path d="M15.7 14.0001L1.95996 13.6401L2.03998 13.3701L15.78 13.7301L15.7 14.0001Z" fill="#020637"/>
<path d="M15.6299 14.2701L1.88995 13.9101L1.95996 13.6401L15.7 14.0001L15.6299 14.2701Z" fill="#020639"/>
<path d="M15.55 14.5302L1.80994 14.1701L1.88995 13.9101L15.6299 14.2701L15.55 14.5302Z" fill="#02063A"/>
<path d="M15.48 14.8001L1.73993 14.4401L1.80994 14.1701L15.55 14.5302L15.48 14.8001Z" fill="#02063B"/>
<path d="M15.4 15.0601L1.65997 14.7001L1.73993 14.4401L15.48 14.8001L15.4 15.0601Z" fill="#02063C"/>
<path d="M15.33 15.3301L1.58997 14.9701L1.65997 14.7001L15.4 15.0601L15.33 15.3301Z" fill="#02063E"/>
<path d="M15.2499 15.6001L1.50995 15.2401L1.58997 14.9701L15.33 15.3301L15.2499 15.6001Z" fill="#02063F"/>
<path d="M15.1799 15.8601L1.43994 15.5001L1.50995 15.2401L15.2499 15.6001L15.1799 15.8601Z" fill="#020640"/>
<path d="M15.1 16.1301L1.35999 15.7701L1.43994 15.5001L15.1799 15.8601L15.1 16.1301Z" fill="#020641"/>
<path d="M15.03 16.3901L1.33997 16.0401L1.34998 15.8301L1.35999 15.7701L15.1 16.1301L15.03 16.3901Z" fill="#020643"/>
<path d="M14.95 16.6601L1.32996 16.3001L1.33997 16.0401L15.03 16.3901L14.95 16.6601Z" fill="#020644"/>
<path d="M14.8799 16.9301L1.32996 16.5701V16.3001L14.95 16.6601L14.8799 16.9301Z" fill="#020645"/>
<path d="M14.8 17.1901L1.31995 16.8401L1.32996 16.5701L14.8799 16.9301L14.8 17.1901Z" fill="#020646"/>
<path d="M14.73 17.4601L1.30994 17.1101L1.31995 16.8401L14.8 17.1901L14.73 17.4601Z" fill="#020648"/>
<path d="M14.65 17.7301L1.29999 17.3801L1.30994 17.1101L14.73 17.4601L14.65 17.7301Z" fill="#020649"/>
<path d="M14.58 17.9901L1.29999 17.6401V17.3801L14.65 17.7301L14.58 17.9901Z" fill="#02064A"/>
<path d="M14.4999 18.2601L1.28998 17.9101L1.29999 17.6401L14.58 17.9901L14.4999 18.2601Z" fill="#02064B"/>
<path d="M14.4299 18.5201L1.27997 18.1801L1.28998 17.9101L14.4999 18.2601L14.4299 18.5201Z" fill="#02064D"/>
<path d="M14.35 18.7901L1.27997 18.4501V18.1801L14.4299 18.5201L14.35 18.7901Z" fill="#02064E"/>
<path d="M14.28 19.0601L1.26996 18.7201L1.27997 18.4501L14.35 18.7901L14.28 19.0601Z" fill="#02064F"/>
<path d="M14.2 19.3201L1.25995 18.9801L1.26996 18.7201L14.28 19.0601L14.2 19.3201Z" fill="#020650"/>
<path d="M14.1299 19.5901L1.25995 19.2501V18.9801L14.2 19.3201L14.1299 19.5901Z" fill="#020651"/>
<path d="M14.05 19.8501L1.24994 19.5201L1.25995 19.2501L14.1299 19.5901L14.05 19.8501Z" fill="#020653"/>
<path d="M13.97 20.1201L1.23993 19.7901L1.24994 19.5201L14.05 19.8501L13.97 20.1201Z" fill="#020654"/>
<path d="M13.9 20.3901L1.22998 20.0601L1.23993 19.7901L13.97 20.1201L13.9 20.3901Z" fill="#020655"/>
<path d="M13.8199 20.6501L1.22998 20.3201V20.0601L13.9 20.3901L13.8199 20.6501Z" fill="#020656"/>
<path d="M13.7499 20.9201L1.21997 20.5901L1.22998 20.3201L13.8199 20.6501L13.7499 20.9201Z" fill="#020657"/>
<path d="M13.67 21.1901L1.20996 20.8601L1.21997 20.5901L13.7499 20.9201L13.67 21.1901Z" fill="#020659"/>
<path d="M13.6 21.4501L1.20996 21.1301V20.8601L13.67 21.1901L13.6 21.4501Z" fill="#02065A"/>
<path d="M13.52 21.7201L1.19995 21.4001L1.20996 21.1301L13.6 21.4501L13.52 21.7201Z" fill="#02065B"/>
<path d="M13.45 21.9801L1.18994 21.6601L1.19995 21.4001L13.52 21.7201L13.45 21.9801Z" fill="#02065C"/>
<path d="M13.3699 22.2501L1.18994 21.9301V21.6601L13.45 21.9801L13.3699 22.2501Z" fill="#02065D"/>
<path d="M13.3 22.5201L1.17993 22.2001L1.18994 21.9301L13.3699 22.2501L13.3 22.5201Z" fill="#02065E"/>
<path d="M13.22 22.7802L1.16998 22.4701L1.17993 22.2001L13.3 22.5201L13.22 22.7802Z" fill="#02065F"/>
<path d="M13.15 23.0501L1.60999 22.7501L1.16998 22.6201V22.4701L13.22 22.7802L13.15 23.0501Z" fill="#020660"/>
<path d="M13.0699 23.3101L2.64996 23.0401L1.60999 22.7501L13.15 23.0501L13.0699 23.3101Z" fill="#020662"/>
<path d="M12.9999 23.5801L3.69995 23.3401L2.64996 23.0401L13.0699 23.3101L12.9999 23.5801Z" fill="#020663"/>
<path d="M12.92 23.8501L4.74994 23.6301L3.69995 23.3401L12.9999 23.5801L12.92 23.8501Z" fill="#020664"/>
<path d="M12.85 24.1101L5.79999 23.9301L4.74994 23.6301L12.92 23.8501L12.85 24.1101Z" fill="#020665"/>
<path d="M12.77 24.3801L6.83997 24.2201L5.79999 23.9301L12.85 24.1101L12.77 24.3801Z" fill="#020666"/>
<path d="M12.7 24.6501L7.88995 24.5201L6.83997 24.2201L12.77 24.3801L12.7 24.6501Z" fill="#020667"/>
</g>
<path d="M17.37 2.1301C16.16 0.760101 14.43 -0.0099038 12.62 9.62007e-05L6.94998 0.0301255C5.12997 0.0401255 3.40999 0.830108 2.21999 2.20011C1.02999 3.57011 0.489953 5.3901 0.739953 7.1901L3.36996 26.2401C2.83996 27.0301 2.55996 27.9701 2.55996 28.9401L2.57998 32.6201C2.57998 33.9101 3.09998 35.1301 4.01998 36.0401C4.93998 36.9501 6.15998 37.4501 7.44998 37.4401L12.67 37.4201C12.99 37.4201 13.32 37.3901 13.64 37.3201C14.57 37.1301 15.42 36.6701 16.09 35.9901C17 35.0701 17.5 33.8501 17.49 32.5601L17.47 28.8801C17.47 27.8001 17.1 26.7801 16.45 25.9401L18.88 7.11008C19.11 5.31008 18.56 3.50011 17.36 2.14011L17.37 2.1301ZM8.56997 7.71012H11.06L9.86001 17.0301L8.56997 7.71012Z" fill="#FFEC00"/>
<path d="M6.98992 24.2601L4.55993 6.65015C4.35993 5.18015 5.49997 3.87011 6.97997 3.86011L12.65 3.83014C14.13 3.83014 15.28 5.1301 15.1 6.6001L12.83 24.2301L6.99993 24.2601H6.98992ZM7.40997 26.8801L12.6399 26.8601C13.7599 26.8601 14.6799 27.7601 14.6799 28.8901L14.6999 32.5701C14.6999 33.6901 13.8 34.6101 12.67 34.6101L7.43994 34.6301C6.31994 34.6301 5.39996 33.7301 5.39996 32.6001L5.37994 28.9201C5.37994 27.8001 6.27997 26.8801 7.40997 26.8801Z" fill="white"/>
<path d="M13.34 35.6501C13.13 35.7001 12.9 35.7201 12.68 35.7201L7.44997 35.7401C5.70997 35.7401 4.28999 34.3401 4.27999 32.6001L4.25997 28.9201C4.25997 28.0801 4.58001 27.2801 5.17001 26.6801C5.76001 26.0801 6.54999 25.7501 7.39999 25.7501L12.63 25.7301C13.47 25.7301 14.27 26.0501 14.87 26.6401C15.47 27.2301 15.8 28.0201 15.8 28.8701L15.82 32.5501C15.82 34.0601 14.76 35.3301 13.34 35.6501ZM7.21999 28.0201C7.04999 28.0601 6.88998 28.1401 6.76998 28.2701C6.59998 28.4401 6.49997 28.6701 6.50997 28.9201L6.52999 32.6001C6.52999 33.1001 6.93997 33.5101 7.44997 33.5101L12.68 33.4901C13.18 33.4901 13.59 33.0801 13.59 32.5701L13.57 28.8901C13.57 28.6501 13.47 28.4201 13.3 28.2501C13.13 28.0801 12.9 27.9801 12.65 27.9901L7.42001 28.0101C7.35001 28.0101 7.29 28.0102 7.23 28.0302L7.21999 28.0201ZM13.8 25.3501L6.00997 25.3901L3.43996 6.81012C3.29996 5.79012 3.59999 4.7601 4.27999 3.9801C4.95999 3.2001 5.92998 2.75012 6.95998 2.75012L12.63 2.72009C13.66 2.72009 14.64 3.16011 15.33 3.93011C16.01 4.70011 16.33 5.73012 16.2 6.75012L13.8 25.3501ZM7.95998 23.1401L11.83 23.1201L13.98 6.47009C14.03 6.08009 13.92 5.7101 13.66 5.4201C13.4 5.13011 13.04 4.97009 12.65 4.97009L6.98 5.00012C6.59 5.00012 6.23 5.16014 5.98 5.46014C5.72 5.75014 5.61001 6.13014 5.67001 6.52014L7.96999 23.1501L7.95998 23.1401Z" fill="url(#paint0_linear_518_23853)"/>
<defs>
<linearGradient id="paint0_linear_518_23853" x1="1.65836" y1="20.9489" x2="18.7306" y2="17.1953" gradientUnits="userSpaceOnUse">
<stop offset="0.24" stop-color="#02062A"/>
<stop offset="0.39" stop-color="#020644"/>
<stop offset="0.66" stop-color="#02066D"/>
<stop offset="0.87" stop-color="#020687"/>
<stop offset="1" stop-color="#020691"/>
</linearGradient>
</defs>
</svg>
