<svg width="45" height="40" viewBox="0 0 45 40" fill="none" xmlns="http://www.w3.org/2000/svg">
<g filter="url(#filter0_d_516_197)">
<path d="M6.87619 16.2101L17.5162 14.9301L25.5362 5.83008L26.5162 15.1001L36.0262 16.7701L25.9962 23.7801L23.8562 33.9101L16.6762 28.9701L5.84619 33.5701L11.4262 23.5001L6.87619 16.2101Z" fill="white" stroke="white" stroke-width="4.81" stroke-miterlimit="10"/>
</g>
<mask id="mask0_516_197" style="mask-type:luminance" maskUnits="userSpaceOnUse" x="7" y="7" width="28" height="26">
<path d="M8.13604 16.8401L17.806 15.6701L25.096 7.39014L25.996 15.8301L34.646 17.3401L25.526 23.7201L23.576 32.9301L17.046 28.4401L7.18604 32.6201L12.266 23.4701L8.13604 16.8401Z" fill="white"/>
</mask>
<g mask="url(#mask0_516_197)">
<path d="M11.1659 47.2101L-1.68408 18.2101L30.7159 -1.99988L43.5659 27.0001L11.1659 47.2101Z" fill="#FF0090" stroke="#04005B" stroke-width="1.04" stroke-miterlimit="10"/>
<path d="M11.1659 47.2101L-1.68408 18.2101L30.7159 -1.99988L43.5659 27.0001L11.1659 47.2101Z" fill="#FF0090" stroke="#04005B" stroke-width="1.04" stroke-miterlimit="10"/>
<path d="M42.7756 32.9001L0.0956249 49.3001L-2.73438 15.1501L39.9456 -1.25989L42.7756 32.9001Z" fill="url(#paint0_linear_516_197)" stroke="#04005B" stroke-width="1.04" stroke-miterlimit="10"/>
</g>
<path d="M8.13604 16.8401L17.806 15.6701L25.096 7.39014L25.996 15.8301L34.646 17.3401L25.526 23.7201L23.576 32.9301L17.046 28.4401L7.18604 32.6201L12.266 23.4701L8.13604 16.8401Z" stroke="#04005B" stroke-width="1.31" stroke-miterlimit="10"/>
<defs>
<filter id="filter0_d_516_197" x="0.356934" y="0.13208" width="44.0069" height="39.6926" filterUnits="userSpaceOnUse" color-interpolation-filters="sRGB">
<feFlood flood-opacity="0" result="BackgroundImageFix"/>
<feColorMatrix in="SourceAlpha" type="matrix" values="0 0 0 0 0 0 0 0 0 0 0 0 0 0 0 0 0 0 127 0" result="hardAlpha"/>
<feOffset dx="2.19" dy="1.31"/>
<feColorMatrix type="matrix" values="0 0 0 0 0.0352941 0 0 0 0 0 0 0 0 0 0.298039 0 0 0 1 0"/>
<feBlend mode="normal" in2="BackgroundImageFix" result="effect1_dropShadow_516_197"/>
<feBlend mode="normal" in="SourceGraphic" in2="effect1_dropShadow_516_197" result="shape"/>
</filter>
<linearGradient id="paint0_linear_516_197" x1="-142.177" y1="1318.05" x2="-142.177" y2="1351.32" gradientUnits="userSpaceOnUse">
<stop stop-color="#FCD524"/>
<stop offset="0.13" stop-color="#C78A36"/>
<stop offset="0.15" stop-color="#CA903A"/>
<stop offset="0.18" stop-color="#D3A248"/>
<stop offset="0.21" stop-color="#E2BF5E"/>
<stop offset="0.24" stop-color="#F9EC81"/>
<stop offset="0.29" stop-color="#F9EE8C"/>
<stop offset="0.36" stop-color="#FBF5A5"/>
<stop offset="0.42" stop-color="#FEFC86"/>
<stop offset="0.43" stop-color="#FFFF7F"/>
<stop offset="0.44" stop-color="#FEFD7D"/>
<stop offset="0.47" stop-color="#E6CE59"/>
<stop offset="0.5" stop-color="#D3A93D"/>
<stop offset="0.52" stop-color="#C68E28"/>
<stop offset="0.55" stop-color="#BD7E1C"/>
<stop offset="0.57" stop-color="#BB7918"/>
<stop offset="0.59" stop-color="#C28626"/>
<stop offset="0.62" stop-color="#D5A94A"/>
<stop offset="0.67" stop-color="#F4E286"/>
<stop offset="0.68" stop-color="#FFF59A"/>
<stop offset="0.71" stop-color="#FEEA74"/>
<stop offset="0.76" stop-color="#FCD524"/>
<stop offset="0.84" stop-color="#C78A36"/>
</linearGradient>
</defs>
</svg>
